<?xml version="1.0" standalone="no"?><!DOCTYPE svg PUBLIC "-//W3C//DTD SVG 1.1//EN" "http://www.w3.org/Graphics/SVG/1.1/DTD/svg11.dtd"><svg t="1525576596307" class="icon" style="" viewBox="0 0 1024 1024" version="1.1" xmlns="http://www.w3.org/2000/svg" p-id="1828" xmlns:xlink="http://www.w3.org/1999/xlink" width="200" height="200"><defs><style type="text/css"></style></defs><path d="M512.340761 908.767536c-18.430768 0-35.805484-6.982018-48.938596-19.648502L142.876058 578.823941c-48.613184-46.685275-75.407434-108.85829-75.407434-175.029362s26.813692-128.385019 75.508741-175.171602c48.511877-46.563502 112.998587-72.219835 181.565219-72.219835 65.522296 0 121.970936 23.627117 172.593893 72.219835l2.273786 2.496867 12.564154 14.268982 18.044982-20.98801c48.755424-45.75202 104.433514-67.998697 170.137958-67.998697 68.5257 0 132.992967 25.635867 181.504844 72.200392 49.425689 47.254234 75.54865 107.822704 75.54865 175.192068 0 66.191538-26.793226 128.385019-75.447343 175.111227L561.279357 889.119033C548.146245 901.784494 530.771529 908.767536 512.340761 908.767536zM324.543607 187.580213c-60.487629 0-117.282147 22.571065-159.968341 63.532989-42.504046 40.839127-65.927525 95.075379-65.927525 152.681378s23.38357 111.780853 65.86715 152.580071l320.566016 310.336024c14.33038 13.802354 40.190351 13.802354 54.520731 0l320.525084-310.255183c42.524512-40.839127 65.907059-95.03547 65.907059-152.660912 0-58.661028-22.794146-111.435998-65.927525-152.660912l-0.020466-0.020466c-42.686195-40.960901-99.480712-63.532989-159.927409-63.532989-58.782801 0-106.524129 19.324114-150.144602 60.813041l-0.710175 0.710175-36.597523 44.289716-37.71395-42.807968C430.153924 207.674876 382.27138 187.580213 324.543607 187.580213z" p-id="1829" fill="#FF7878"></path></svg>