<?xml version="1.0" standalone="no"?><!DOCTYPE svg PUBLIC "-//W3C//DTD SVG 1.1//EN" "http://www.w3.org/Graphics/SVG/1.1/DTD/svg11.dtd"><svg t="1525578883227" class="icon" style="" viewBox="0 0 1024 1024" version="1.1" xmlns="http://www.w3.org/2000/svg" p-id="38641" xmlns:xlink="http://www.w3.org/1999/xlink" width="200" height="200"><defs><style type="text/css"></style></defs><path d="M926.4 788.9c0 14.1-11.5 25.6-25.6 25.6h-53.4c-9.1 0-16.5 7.4-16.5 16.5v75.6l-100.6-88.1c-3-2.6-6.9-4.1-10.9-4.1H345.9c-14.1 0-25.6-11.5-25.6-25.6V640.5h452.5c32.3 0 58.6-26.3 58.6-58.6V384.5h69.4c14.1 0 25.6 11.5 25.6 25.6v378.8z" fill="#FBCCD1" p-id="38642"></path><path d="M900.8 351.5h-69.4V123.1c0-32.3-26.3-58.6-58.6-58.6H123c-32.3 0-58.6 26.3-58.6 58.6V582c0 32.3 26.3 58.6 58.6 58.6h36.9V770c0 6.9 4.3 13 10.7 15.4 1.9 0.7 3.9 1.1 5.8 1.1 4.7 0 9.2-2 12.4-5.6l98.6-112.5V789c0 32.3 26.3 58.6 58.6 58.6h367.3l123.3 107.9c3.1 2.7 6.9 4.1 10.9 4.1 2.3 0 4.6-0.5 6.8-1.5 5.9-2.7 9.7-8.6 9.7-15v-95.5h36.9c32.3 0 58.6-26.3 58.6-58.6V410.1c-0.1-32.3-26.4-58.6-58.7-58.6z m-596.5 256c-4.8 0-9.3 2-12.4 5.6l-99.1 113V624c0-9.1-7.4-16.5-16.5-16.5H123c-14.1 0-25.6-11.5-25.6-25.6V123.1c0-14.1 11.5-25.6 25.6-25.6h649.9c14.1 0 25.6 11.5 25.6 25.6V582c0 14.1-11.5 25.6-25.6 25.6H304.3z m622.1 181.4c0 14.1-11.5 25.6-25.6 25.6h-53.4c-9.1 0-16.5 7.4-16.5 16.5v75.6l-100.6-88.1c-3-2.6-6.9-4.1-10.9-4.1H345.9c-14.1 0-25.6-11.5-25.6-25.6V640.5h452.5c32.3 0 58.6-26.3 58.6-58.6V384.5h69.4c14.1 0 25.6 11.5 25.6 25.6v378.8z" fill="#F55467" p-id="38643"></path><path d="M447.8 457.4m-13.2 0a13.2 13.2 0 1 0 26.4 0 13.2 13.2 0 1 0-26.4 0Z" fill="#F55467" p-id="38644"></path><path d="M447.9 228.6c-40.2 0-72.9 32.7-72.9 72.9 0 5.5 4.5 10 10 10s10-4.5 10-10c0-29.2 23.7-52.9 52.9-52.9s52.9 23.7 52.9 52.9-23.7 52.9-52.9 52.9c-5.5 0-10 4.5-10 10v53.2c0 5.5 4.5 10 10 10s10-4.5 10-10v-44c35.5-4.9 62.9-35.4 62.9-72.2 0-40.1-32.7-72.8-72.9-72.8z" fill="#F55467" p-id="38645"></path></svg>