<?xml version="1.0" standalone="no"?><!DOCTYPE svg PUBLIC "-//W3C//DTD SVG 1.1//EN" "http://www.w3.org/Graphics/SVG/1.1/DTD/svg11.dtd"><svg t="1525578845704" class="icon" style="" viewBox="0 0 1024 1024" version="1.1" xmlns="http://www.w3.org/2000/svg" p-id="38042" xmlns:xlink="http://www.w3.org/1999/xlink" width="200" height="200"><defs><style type="text/css"></style></defs><path d="M533.333333 320m-170.666666 0a170.666667 170.666667 0 1 0 341.333333 0 170.666667 170.666667 0 1 0-341.333333 0Z" fill="#F9BA48" p-id="38043"></path><path d="M618.666667 277.333333c0-46.933333-38.4-85.333333-85.333334-85.333333-21.333333 0-42.666667 8.533333-59.733333 23.466667-8.533333 8.533333-8.533333 21.333333 0 29.866666 8.533333 8.533333 21.333333 8.533333 29.866667 0 8.533333-8.533333 19.2-12.8 29.866666-12.8 23.466667 0 42.666667 19.2 42.666667 42.666667s-19.2 42.666667-42.666667 42.666667c-12.8 0-21.333333 8.533333-21.333333 21.333333v53.333333c0 6.4 4.266667 10.666667 10.666667 10.666667h21.333333c6.4 0 10.666667-4.266667 10.666667-10.666667v-34.133333c36.266667-8.533333 64-40.533333 64-81.066667z" fill="#3A3E46" p-id="38044"></path><path d="M533.333333 448m-21.333333 0a21.333333 21.333333 0 1 0 42.666667 0 21.333333 21.333333 0 1 0-42.666667 0Z" fill="#3A3E46" p-id="38045"></path><path d="M544 64c-181.333333 0-330.666667 162.133333-330.666667 362.666667v6.4l-53.333333 115.2c-2.133333 4.266667-2.133333 10.666667 0 17.066666 2.133333 4.266667 6.4 10.666667 10.666667 12.8l85.333333 40.533334v151.466666c0 12.8 8.533333 21.333333 21.333333 21.333334h106.666667v149.333333c0 12.8 8.533333 21.333333 21.333333 21.333333h298.666667c12.8 0 21.333333-8.533333 21.333333-21.333333v-209.066667c93.866667-68.266667 149.333333-181.333333 149.333334-302.933333 0-202.666667-149.333333-364.8-330.666667-364.8z m155.733333 631.466667l-8.533333 6.4c-6.4 4.266667-8.533333 10.666667-8.533333 17.066666v198.4h-256v-149.333333c0-12.8-8.533333-21.333333-21.333334-21.333333h-106.666666v-142.933334c0-8.533333-4.266667-14.933333-12.8-19.2l-78.933334-36.266666 46.933334-100.266667c2.133333-2.133333 2.133333-6.4 2.133333-8.533333v-10.666667c0-172.8 123.733333-313.6 277.333333-320v42.666667c6.4 0 14.933333 0 21.333334 2.133333v-42.666667c119.466667 4.266667 221.866667 91.733333 260.266666 213.333334h-110.933333c0 6.4 0 14.933333-2.133333 21.333333h119.466666c6.4 27.733333 10.666667 55.466667 10.666667 85.333333 0 104.533333-49.066667 204.8-132.266667 264.533334z" fill="#3A3E46" p-id="38046"></path></svg>