<?xml version="1.0" standalone="no"?><!DOCTYPE svg PUBLIC "-//W3C//DTD SVG 1.1//EN" "http://www.w3.org/Graphics/SVG/1.1/DTD/svg11.dtd"><svg t="1525757178957" class="icon" style="" viewBox="0 0 1024 1024" version="1.1" xmlns="http://www.w3.org/2000/svg" p-id="12073" xmlns:xlink="http://www.w3.org/1999/xlink" width="200" height="200"><defs><style type="text/css"></style></defs><path d="M0 0h1024v1024H0z" fill="#FFFFFF" p-id="12074"></path><path d="M512 512m-512 0a512 512 0 1 0 1024 0 512 512 0 1 0-1024 0Z" fill="#323333" p-id="12075"></path><path d="M771.328 821.632a35.584 35.584 0 0 0 50.304-50.24l-259.264-259.2 259.264-259.136a35.584 35.584 0 0 0 0-50.24 34.56 34.56 0 0 0-49.984-0.384L512.064 461.952 252.736 202.432a35.52 35.52 0 0 0-50.24 50.24l259.264 259.2-259.328 259.456a35.584 35.584 0 0 0 50.304 50.24l259.328-259.2 259.264 259.264z" fill="#FFFFFF" p-id="12076"></path></svg>