<?xml version="1.0" standalone="no"?><!DOCTYPE svg PUBLIC "-//W3C//DTD SVG 1.1//EN" "http://www.w3.org/Graphics/SVG/1.1/DTD/svg11.dtd"><svg t="1525577260755" class="icon" style="" viewBox="0 0 1024 1024" version="1.1" xmlns="http://www.w3.org/2000/svg" p-id="12290" xmlns:xlink="http://www.w3.org/1999/xlink" width="200" height="200"><defs><style type="text/css"></style></defs><path d="M512.158 855.934s-41.346-26.868-81.818-57.77H126.84v194.9h770.32v-194.9H593.916c-40.43 30.932-81.758 57.77-81.758 57.77zM126.84 30.936v590.888h217.904c13.566-37.146 45.594-63.958 82.966-63.958 49.354 0 84.29 39.304 84.29 39.304s37.056-39.304 84.286-39.304c37.374 0 69.404 26.812 82.966 63.958H897.16V30.936H126.84z" fill="#BBDCE3" p-id="12291"></path><path d="M596.286 557.866c-47.23 0-84.286 39.304-84.286 39.304s-34.94-39.304-84.29-39.304c-48.002 0-87.198 44.224-89.762 97.774-1.448 30.25 7.282 53.27 19.586 74.124 24.572 41.66 154.624 126.166 154.624 126.166s129.572-84.144 154.306-126.166c12.332-20.948 21.034-43.874 19.586-74.124-2.566-53.546-41.76-97.774-89.764-97.774" fill="#DE5E88" p-id="12292"></path><path d="M357.534 729.768c-12.304-20.854-21.03-43.874-19.586-74.124a114.664 114.664 0 0 1 6.796-33.82H126.84v176.338h303.5c-31.304-23.904-62.09-50.222-72.806-68.394zM679.256 621.824a114.6 114.6 0 0 1 6.796 33.82c1.448 30.25-7.254 53.176-19.586 74.124-10.766 18.29-41.394 44.558-72.55 68.394H897.16v-176.338H679.256z" fill="#FECC85" p-id="12293"></path><path d="M897.16 0H126.84c-17.086 0-30.936 13.854-30.936 30.936v962.126c0 17.084 13.85 30.936 30.936 30.936h770.32c17.086 0 30.936-13.854 30.936-30.936V30.936C928.096 13.854 914.246 0 897.16 0zM157.776 652.762h149.344c-0.024 0.468-0.052 0.938-0.074 1.404a165.582 165.582 0 0 0-0.188 7.774c0 0.186 0.012 0.358 0.012 0.544 0.024 7.424 0.548 14.46 1.472 21.086 0.112 0.81 0.262 1.58 0.386 2.38a152.868 152.868 0 0 0 2.018 10.654c0.126 0.556 0.278 1.086 0.412 1.636 4.842 20.004 12.912 35.7 19.726 47.25 3.088 5.232 7.824 12.134 16.718 21.736H157.776v-114.464zM512.16 818.74c-15.486-10.502-39.534-27.214-63.042-45.168l-0.018-0.012a954.66 954.66 0 0 1-8.646-6.682l-0.482-0.378c-1.348-1.058-2.67-2.1-3.956-3.122l-0.106-0.084c-35.296-28.02-47.074-42.312-50.758-47.728-0.34-0.514-0.684-1.03-0.972-1.518a146.224 146.224 0 0 1-4.706-8.672c-5.786-11.506-9.13-22.318-10.28-33.686a98.078 98.078 0 0 1-0.344-14.568c0.096-1.99 0.272-3.966 0.508-5.93 0.022-0.194 0.04-0.392 0.064-0.588 0.242-1.912 0.55-3.812 0.922-5.698l0.114-0.59a81.18 81.18 0 0 1 1.46-6.02 82.56 82.56 0 0 1 1.884-5.848l0.004-0.01a82.864 82.864 0 0 1 3.956-9.084c0.136-0.266 0.272-0.532 0.412-0.798 0.622-1.192 1.274-2.354 1.946-3.492 0.39-0.656 0.798-1.296 1.206-1.936 0.27-0.424 0.538-0.842 0.814-1.26 7.846-11.772 18.578-20.554 30.674-24.594 0.418-0.136 0.832-0.282 1.25-0.408a48.61 48.61 0 0 1 4.282-1.084c0.446-0.092 0.894-0.186 1.342-0.264a45.634 45.634 0 0 1 4.246-0.54 46.434 46.434 0 0 1 3.778-0.176c34.358 0 61.034 28.78 61.168 28.922 5.766 6.488 13.936 10.312 22.614 10.438 8.68 0.282 16.954-3.336 22.908-9.656 0.028-0.028 0.38-0.384 0.888-0.876 4.644-4.464 31.386-28.83 60.994-28.83 1.266 0 2.524 0.072 3.778 0.176a46.92 46.92 0 0 1 4.242 0.538c0.452 0.08 0.904 0.174 1.352 0.266a48.6 48.6 0 0 1 4.282 1.082c0.414 0.124 0.822 0.266 1.232 0.402 12.114 4.04 22.862 12.838 30.714 24.634 0.25 0.378 0.494 0.762 0.74 1.144 0.448 0.702 0.894 1.408 1.324 2.132 0.64 1.088 1.266 2.2 1.86 3.338 0.152 0.288 0.3 0.582 0.452 0.872a82.952 82.952 0 0 1 3.942 9.046l0.004 0.01c0.696 1.912 1.318 3.848 1.872 5.8 0.034 0.124 0.068 0.248 0.106 0.372 0.52 1.868 0.972 3.756 1.362 5.662 0.046 0.222 0.086 0.446 0.13 0.668 0.366 1.862 0.672 3.738 0.91 5.628 0.028 0.22 0.046 0.446 0.074 0.666a84 84 0 0 1 0.5 5.882c0.48 10.012-0.426 19.27-2.92 28.52-0.33 1.228-0.768 2.462-1.154 3.694-2.528 8.024-6.194 16.112-11.27 24.736-0.33 0.566-0.72 1.16-1.12 1.758-3.548 5.222-12.746 16.196-36.198 35.908-9.126 7.648-19.304 15.706-29.95 23.814-22.648 17.21-45.486 33.08-60.388 43.192z m180.964-73.278c8.326-14.138 18.544-34.448 22.416-61.248 0.034-0.232 0.08-0.452 0.112-0.686 0.25-1.786 0.446-3.622 0.638-5.466 0.05-0.492 0.124-0.962 0.17-1.458 0.072-0.764 0.102-1.56 0.164-2.33 0.316-3.998 0.516-8.094 0.514-12.352a162.536 162.536 0 0 0-0.26-9.16h149.346v114.466H676.46c8.84-9.594 13.57-16.51 16.664-21.766zM157.776 61.874h708.448v529.016h-167.038c-8.096-14.608-18.624-27.332-30.952-37.508l-0.142-0.12a120.594 120.594 0 0 0-12.298-8.898c-0.356-0.222-0.714-0.436-1.07-0.656a116.812 116.812 0 0 0-5.212-3.026c-0.454-0.248-0.906-0.504-1.364-0.746a113.206 113.206 0 0 0-12.94-5.85c-0.572-0.216-1.15-0.42-1.73-0.628a109.468 109.468 0 0 0-5.172-1.716c-0.584-0.18-1.164-0.366-1.75-0.532a111 111 0 0 0-6.878-1.76c-0.006 0-0.01 0-0.016-0.004a109.852 109.852 0 0 0-6.89-1.25c-0.666-0.102-1.336-0.186-2.004-0.272a111.61 111.61 0 0 0-5.262-0.57c-0.69-0.058-1.374-0.124-2.066-0.17a110.078 110.078 0 0 0-7.15-0.256c-35.314 0-64.982 15.828-84.094 29.582-17.758-12.928-44.836-27.614-77.808-29.4-2.2-0.12-4.424-0.182-6.674-0.182-2.4 0-4.782 0.102-7.15 0.256-0.69 0.046-1.376 0.112-2.064 0.17-1.766 0.148-3.52 0.338-5.266 0.57-0.668 0.09-1.336 0.174-2.002 0.272-2.32 0.352-4.626 0.754-6.902 1.252-2.32 0.508-4.612 1.108-6.884 1.76-0.584 0.168-1.16 0.352-1.742 0.528-1.744 0.532-3.472 1.104-5.184 1.72-0.576 0.208-1.15 0.408-1.72 0.624a113.378 113.378 0 0 0-12.95 5.854c-0.452 0.242-0.898 0.492-1.348 0.736a116.38 116.38 0 0 0-5.228 3.034c-0.352 0.216-0.708 0.426-1.058 0.646a120.652 120.652 0 0 0-12.31 8.906l-0.13 0.108c-12.328 10.176-22.86 22.902-30.958 37.514H157.776V61.874z m708.448 900.252H157.776V829.1h261.99c33.092 24.87 64.726 45.752 75.538 52.778 2.434 1.58 5.042 2.76 7.732 3.588 0.142 0.044 0.278 0.114 0.42 0.154 0.238 0.072 0.486 0.092 0.724 0.158 2.614 0.7 5.294 1.092 7.978 1.092 3.418 0 6.822-0.638 10.094-1.766 2.338-0.81 4.622-1.838 6.756-3.224 0.13-0.084 0.51-0.33 1.074-0.702 11.654-7.588 42.324-27.918 74.428-52.078h261.714v133.026z" fill="" p-id="12294"></path><path d="M283.326 256.774h365.04c17.086 0 30.936-13.854 30.936-30.936s-13.85-30.936-30.936-30.936h-365.04c-17.086 0-30.936 13.854-30.936 30.936s13.85 30.936 30.936 30.936zM712.098 237.652a30.5 30.5 0 0 0 6.714 10.054c1.424 1.426 3 2.726 4.702 3.836a31.326 31.326 0 0 0 5.322 2.846c1.888 0.774 3.836 1.392 5.786 1.794a30.98 30.98 0 0 0 6.064 0.588c2.01 0 4.052-0.188 6.032-0.588 1.98-0.402 3.928-1.02 5.786-1.794a30.5 30.5 0 0 0 5.352-2.846 29.176 29.176 0 0 0 4.702-3.836c1.424-1.424 2.722-3 3.836-4.702a30.5 30.5 0 0 0 2.846-5.352c0.774-1.856 1.362-3.802 1.764-5.782 0.402-1.984 0.618-4.024 0.618-6.032a31.326 31.326 0 0 0-2.382-11.818 30.464 30.464 0 0 0-2.846-5.348 29.64 29.64 0 0 0-3.836-4.706 29.588 29.588 0 0 0-4.702-3.836 30.77 30.77 0 0 0-5.352-2.846 28.8 28.8 0 0 0-5.786-1.76 30.484 30.484 0 0 0-12.096 0c-1.95 0.368-3.898 0.986-5.786 1.76-1.856 0.774-3.65 1.736-5.322 2.846a29.608 29.608 0 0 0-4.702 3.836 29.74 29.74 0 0 0-3.868 4.706 30.536 30.536 0 0 0-2.846 5.348 30.456 30.456 0 0 0-2.352 11.818 30.47 30.47 0 0 0 2.352 11.814zM740.674 371.238h-365.04c-17.086 0-30.936 13.854-30.936 30.936 0 17.084 13.85 30.936 30.936 30.936h365.038c17.086 0 30.936-13.854 30.936-30.936 0.002-17.082-13.848-30.936-30.934-30.936zM313.666 396.142a31.234 31.234 0 0 0-1.764-5.786 30.464 30.464 0 0 0-6.714-10.054 29.588 29.588 0 0 0-4.702-3.836 29.34 29.34 0 0 0-5.322-2.846 32.804 32.804 0 0 0-5.786-1.794 31.796 31.796 0 0 0-12.096 0c-1.98 0.402-3.928 1.02-5.786 1.794-1.888 0.774-3.682 1.702-5.352 2.846a29.608 29.608 0 0 0-4.702 3.836 29.44 29.44 0 0 0-3.836 4.706 30.536 30.536 0 0 0-2.846 5.348 31.28 31.28 0 0 0-2.382 11.818c0 2.008 0.216 4.052 0.618 6.032 0.402 1.98 0.99 3.928 1.764 5.782a30.5 30.5 0 0 0 2.846 5.352c1.114 1.702 2.414 3.28 3.836 4.702 1.424 1.424 3 2.726 4.702 3.836a30.5 30.5 0 0 0 5.352 2.846c1.856 0.774 3.806 1.392 5.786 1.764 1.98 0.402 4.022 0.618 6.032 0.618s4.052-0.216 6.064-0.618a30.368 30.368 0 0 0 5.786-1.764 31.48 31.48 0 0 0 5.322-2.846 29.39 29.39 0 0 0 4.702-3.836c1.424-1.424 2.722-3 3.868-4.702a30.5 30.5 0 0 0 2.846-5.352 30.5 30.5 0 0 0 2.352-11.814 30.44 30.44 0 0 0-0.588-6.032z" fill="" p-id="12295"></path></svg>