<?xml version="1.0" standalone="no"?><!DOCTYPE svg PUBLIC "-//W3C//DTD SVG 1.1//EN" "http://www.w3.org/Graphics/SVG/1.1/DTD/svg11.dtd"><svg t="1525577475841" class="icon" style="" viewBox="0 0 1024 1024" version="1.1" xmlns="http://www.w3.org/2000/svg" p-id="17907" xmlns:xlink="http://www.w3.org/1999/xlink" width="200" height="200"><defs><style type="text/css"></style></defs><path d="M512 958.708971c-246.317988 0-446.708971-200.390983-446.708971-446.708971S265.680988 65.290005 512 65.290005 958.708971 265.680988 958.708971 512 758.317988 958.708971 512 958.708971z m0-857.682043c-226.617297 0-410.973072 184.363961-410.973072 410.973072s184.354751 410.973072 410.973072 410.973072 410.973072-184.363961 410.973072-410.973072S738.617297 101.026928 512 101.026928z" fill="#885F44" p-id="17908"></path><path d="M509.765099 257.746272l79.512938 161.110351 177.796383 25.835412-128.654149 125.407198 30.370705 177.078021-159.025877-83.60514-159.025876 83.60514 30.371728-177.078021-128.655172-125.407198 177.796382-25.835412z" fill="#F7D11E" p-id="17909"></path><path d="M668.784836 765.045203c-2.844791 0-5.705955-0.680499-8.323573-2.050705l-150.69514-79.229483-150.694118 79.229483a17.856693 17.856693 0 0 1-18.827811-1.360998 17.872043 17.872043 0 0 1-7.101745-17.476023l28.774347-167.821193-121.938189-118.848828a17.897625 17.897625 0 0 1-4.519944-18.322298 17.887392 17.887392 0 0 1 14.430664-12.161994L418.382832 402.521586l75.364455-152.683424c6.002714-12.196787 26.034956-12.196787 32.037671 0l75.364455 152.683424 168.493505 24.481578a17.890462 17.890462 0 0 1 14.430664 12.161994 17.897625 17.897625 0 0 1-4.519943 18.322298l-121.937167 118.848828 28.774347 167.821193a17.874089 17.874089 0 0 1-7.101745 17.476023 17.907858 17.907858 0 0 1-10.504238 3.411703z m-159.018713-119.337969c2.862187 0 5.705955 0.680499 8.323572 2.050706l126.963647 66.753333-24.237007-141.39431a17.891486 17.891486 0 0 1 5.129833-15.818268l102.725617-100.134604-141.952013-20.62576a17.84646 17.84646 0 0 1-13.453407-9.780761l-63.499219-128.646985-63.49922 128.646985a17.848507 17.848507 0 0 1-13.453406 9.780761l-141.952013 20.62576 102.725616 100.134604a17.887392 17.887392 0 0 1 5.129834 15.818268l-24.237007 141.39431 126.963647-66.753333a17.884322 17.884322 0 0 1 8.321526-2.050706z" fill="#885F44" p-id="17910"></path></svg>