<?xml version="1.0" standalone="no"?><!DOCTYPE svg PUBLIC "-//W3C//DTD SVG 1.1//EN" "http://www.w3.org/Graphics/SVG/1.1/DTD/svg11.dtd"><svg t="1525578262077" class="icon" style="" viewBox="0 0 1033 1024" version="1.1" xmlns="http://www.w3.org/2000/svg" p-id="31704" xmlns:xlink="http://www.w3.org/1999/xlink" width="201.7578125" height="200"><defs><style type="text/css"></style></defs><path d="M1025.702312 985.6C980.902312 832 865.702312 704 718.502312 640c-12.8-6.4-25.6 0-32 12.8-6.4 12.8 0 25.6 12.8 32 134.4 57.6 236.8 172.8 281.6 313.6 0 12.8 12.8 19.2 25.6 19.2 0 0 6.4 0 6.4 0C1025.702312 1011.2 1032.102312 998.4 1025.702312 985.6z" p-id="31705" fill="#FF7878"></path><path d="M308.902312 640c-147.2 64-262.4 192-307.2 339.2-6.4 12.8 6.4 25.6 19.2 32 0 0 6.4 0 6.4 0 12.8 0 19.2-6.4 25.6-19.2 38.4-140.8 147.2-256 281.6-313.6 12.8-6.4 19.2-19.2 12.8-32C340.902312 640 321.702312 633.6 308.902312 640z" p-id="31706" fill="#FF7878"></path><path d="M801.702312 422.4c44.8 0 83.2-38.4 83.2-83.2 0-44.8-38.4-83.2-83.2-83.2L801.702312 422.4z" p-id="31707" fill="#FF7878"></path><path d="M232.102312 416 232.102312 249.6c-44.8 0-83.2 38.4-83.2 83.2C142.502312 377.6 180.902312 416 232.102312 416z" p-id="31708" fill="#FF7878"></path><path d="M513.702312 339.2m-243.2 0a3.8 3.8 0 1 0 486.4 0 3.8 3.8 0 1 0-486.4 0Z" p-id="31709" fill="#FF7878"></path><path d="M814.502312 473.6c0-6.4 0-12.8-6.4-19.2-6.4 0-12.8 0-19.2 6.4-38.4 89.6-115.2 147.2-211.2 166.4C571.302312 614.4 552.102312 608 526.502312 608c-32 0-57.6 19.2-57.6 44.8 0 25.6 25.6 44.8 57.6 44.8 25.6 0 51.2-12.8 57.6-32C680.102312 640 769.702312 569.6 814.502312 473.6z" p-id="31710" fill="#FF7878"></path><path d="M225.702312 217.6C225.702312 217.6 225.702312 217.6 225.702312 217.6c12.8 0 12.8 0 19.2-6.4C308.902312 57.6 488.102312-6.4 641.702312 64c51.2 25.6 96 64 128 115.2 6.4 12.8 12.8 25.6 19.2 32 0 6.4 12.8 6.4 19.2 6.4 6.4 0 6.4-12.8 6.4-19.2-6.4-12.8-12.8-25.6-19.2-38.4C756.902312 108.8 712.102312 64 654.502312 38.4 488.102312-38.4 296.102312 38.4 219.302312 198.4 212.902312 204.8 219.302312 211.2 225.702312 217.6z" p-id="31711" fill="#FF7878"></path></svg>