<?xml version="1.0" standalone="no"?><!DOCTYPE svg PUBLIC "-//W3C//DTD SVG 1.1//EN" "http://www.w3.org/Graphics/SVG/1.1/DTD/svg11.dtd"><svg t="1525578667572" class="icon" style="" viewBox="0 0 1024 1024" version="1.1" xmlns="http://www.w3.org/2000/svg" p-id="32389" xmlns:xlink="http://www.w3.org/1999/xlink" width="200" height="200"><defs><style type="text/css"></style></defs><path d="M883.1 255.3H589.8c-42.8 0-77.8 30.1-77.8 66.9 0-36.8-35-66.9-77.8-66.9H140.9c-21.5 0-38.9 15-38.9 33.5v490.9c0 29.5 23.9 53.3 53.3 53.3h237.2c20.3 0 36.2 6.8 56 16.6 17.3 8.6 32.4 18 63.5 18s46.2-9.4 63.5-18c17.6-8.7 35.7-16.6 56-16.6h237.2c29.5 0 53.3-23.9 53.3-53.3V288.8c0-18.5-17.4-33.5-38.9-33.5z" fill="#A89082" p-id="32390"></path><path d="M512 877.6c-30.4 0-46.8-8.3-62.8-16.4-1.7-0.9-3.4-1.7-5.2-2.6-17.8-8.8-32.9-15.6-51.5-15.6H155.3c-34.9 0-63.3-28.4-63.3-63.3V288.8c0-24 21.9-43.5 48.9-43.5h293.2c33.8 0 63.1 16.8 77.8 41.3 14.7-24.5 44.1-41.3 77.8-41.3h293.2c27 0 48.9 19.5 48.9 43.5v490.9c0 34.9-28.4 63.3-63.3 63.3h-237c-18.5 0-35.6 7.7-51.5 15.6-1.8 0.9-3.5 1.8-5.2 2.6-16 8-32.5 16.4-62.8 16.4zM140.9 265.3c-15.9 0-28.9 10.5-28.9 23.5v490.9c0 23.9 19.4 43.3 43.3 43.3h237.2c22.9 0 40.9 8 60.4 17.6l5.4 2.7c15.1 7.6 28.1 14.3 53.7 14.3s38.6-6.6 53.7-14.2l5.4-2.7c18.1-8.9 37.6-17.6 60.4-17.6h237.2c23.9 0 43.3-19.4 43.3-43.3v-491c0-12.9-13-23.5-28.9-23.5H589.8c-37.4 0-67.8 25.5-67.8 56.9 0 5.5-4.5 10-10 10s-10-4.5-10-10c0-31.4-30.4-56.9-67.8-56.9H140.9z" fill="#543630" p-id="32391"></path><path d="M839.4 202H578.7c-36.7 0-66.7 30-66.7 66.7 0-36.7-30-66.7-66.7-66.7H184.6c-14.9 0-27 12.1-27 27v519.3c0 14.9 12.1 27 27 27h227c17.2 0 31.5 6.7 47.3 16.3 14.9 9.1 26.2 15.9 53.1 15.9s38.2-6.6 53.1-15.9c13.6-8.5 30.2-16.3 47.3-16.3h227c14.9 0 27-12.1 27-27V229c0-14.9-12.1-27-27-27z" fill="#FFFFFF" p-id="32392"></path><path d="M512 817.6c-29.8 0-43-8-58.3-17.4-14.6-8.9-27.4-14.9-42.1-14.9h-227c-20.4 0-37-16.6-37-37V229c0-20.4 16.6-37 37-37h260.7c28.5 0 53.5 15.7 66.7 38.8 13.2-23.2 38.1-38.8 66.7-38.8h260.7c20.4 0 37 16.6 37 37v519.3c0 20.4-16.6 37-37 37h-227c-12.4 0-26.2 4.8-42 14.8-16.8 10.6-29.9 17.5-58.4 17.5zM184.6 212c-9.4 0-17 7.6-17 17v519.3c0 9.4 7.6 17 17 17h227c20.6 0 37.4 8.5 52.5 17.8 14.2 8.7 23.7 14.4 47.9 14.4 24.9 0 34.5-6 47.7-14.4 19.1-12 36.4-17.9 52.7-17.9h227c9.4 0 17-7.6 17-17V229c0-9.4-7.6-17-17-17H578.7c-31.2 0-56.7 25.4-56.7 56.7 0 5.5-4.5 10-10 10s-10-4.5-10-10c0-31.2-25.4-56.7-56.7-56.7H184.6z" fill="#543630" p-id="32393"></path><path d="M512 263.1c0-36.3-29.4-66-65.6-66.6v582.6c4.1 2.1 8.3 4.5 12.5 7 14.9 9.1 26.2 15.9 53.1 15.9s38.2-6.6 53.1-15.9c4.3-2.7 8.8-5.3 13.6-7.6V196.4c-36.7 0-66.7 30-66.7 66.7z" fill="#EFE7DA" p-id="32394"></path><path d="M512 268.7v538.9" fill="#FFFFFF" p-id="32395"></path><path d="M512 817.6c-5.5 0-10-4.5-10-10V268.7c0-5.5 4.5-10 10-10s10 4.5 10 10v538.9c0 5.5-4.5 10-10 10z" fill="#543630" p-id="32396"></path><path d="M299.2 340.3l51.1 40.6h1.7V202H246.4v178.9h1.8z" fill="#FF6687" p-id="32397"></path><path d="M352 390.9h-1.7c-2.3 0-4.5-0.8-6.2-2.2l-44.8-35.6-44.8 35.6c-1.8 1.4-4 2.2-6.2 2.2h-1.7c-5.5 0-10-4.5-10-10V202c0-5.5 4.5-10 10-10H352c5.5 0 10 4.5 10 10v178.9c0 5.5-4.5 10-10 10zM256.4 212v149.5l36.6-29.1c3.6-2.9 8.8-2.9 12.4 0l36.6 29.1V212h-85.6z" fill="#543630" p-id="32398"></path><path d="M512 817.6c-29.8 0-43-8-58.3-17.4-14.6-8.9-27.4-14.9-42.1-14.9h-227c-20.4 0-37-16.6-37-37V229c0-20.4 16.6-37 37-37h260.7c28.5 0 53.5 15.7 66.7 38.8 13.2-23.2 38.1-38.8 66.7-38.8h260.7c20.4 0 37 16.6 37 37v519.3c0 20.4-16.6 37-37 37h-227c-12.4 0-26.2 4.8-42 14.8-16.8 10.6-29.9 17.5-58.4 17.5zM184.6 212c-9.4 0-17 7.6-17 17v519.3c0 9.4 7.6 17 17 17h227c20.6 0 37.4 8.5 52.5 17.8 14.2 8.7 23.7 14.4 47.9 14.4 24.9 0 34.5-6 47.7-14.4 19.1-12 36.4-17.9 52.7-17.9h227c9.4 0 17-7.6 17-17V229c0-9.4-7.6-17-17-17H578.7c-31.2 0-56.7 25.4-56.7 56.7 0 5.5-4.5 10-10 10s-10-4.5-10-10c0-31.2-25.4-56.7-56.7-56.7H184.6z" fill="#543630" p-id="32399"></path><path d="M239.8 548.7h163.3" fill="#A89082" p-id="32400"></path><path d="M403.1 558.7H239.8c-5.5 0-10-4.5-10-10s4.5-10 10-10h163.3c5.5 0 10 4.5 10 10s-4.5 10-10 10z" fill="#543630" p-id="32401"></path><path d="M239.8 628.7h98.9" fill="#A89082" p-id="32402"></path><path d="M338.7 638.7h-98.9c-5.5 0-10-4.5-10-10s4.5-10 10-10h98.9c5.5 0 10 4.5 10 10s-4.5 10-10 10z" fill="#543630" p-id="32403"></path><path d="M839.4 202h-36.3v573.3h36.3c14.9 0 27-12.1 27-27V229c0-14.9-12.1-27-27-27z" fill="#FFD527" p-id="32404"></path><path d="M839.4 785.3h-36.3c-5.5 0-10-4.5-10-10V202c0-5.5 4.5-10 10-10h36.3c20.4 0 37 16.6 37 37v519.3c0 20.4-16.6 37-37 37z m-26.3-20h26.3c9.4 0 17-7.6 17-17V229c0-9.4-7.6-17-17-17h-26.3v553.3z" fill="#543630" p-id="32405"></path></svg>