<?xml version="1.0" standalone="no"?><!DOCTYPE svg PUBLIC "-//W3C//DTD SVG 1.1//EN" "http://www.w3.org/Graphics/SVG/1.1/DTD/svg11.dtd"><svg t="1525608225027" class="icon" style="" viewBox="0 0 1024 1024" version="1.1" xmlns="http://www.w3.org/2000/svg" p-id="3354" xmlns:xlink="http://www.w3.org/1999/xlink" width="200" height="200"><defs><style type="text/css"></style></defs><path d="M875.1 297.7c-4.6 0-9.2-1.8-12.8-5.3L736.1 166.1c-7-7-7-18.5 0-25.5s18.5-7 25.5 0l126.3 126.3c7 7 7 18.5 0 25.5-3.5 3.5-8.1 5.3-12.8 5.3z" fill="#FF7878" p-id="3355"></path><path d="M261.8 784.7c-4.8 0-9.3-1.9-12.7-5.2-3.5-3.4-5.4-8.2-5.3-13.1 0.1-6.6 3.2-163.5 72.2-232.5L735.9 114c50-50 117.2-61.2 153-25.4l51 51c35.8 35.8 24.6 103-25.5 153.1L494.5 712.5c-68 68-225.7 72.1-232.4 72.2h-0.3z m573.3-680.9c-22.5 0-50.8 12.9-73.7 35.8L341.5 559.4c-46 46-57.7 146-60.7 188.2 42.4-3.2 143.1-15.4 188.2-60.6l419.9-419.9c34.6-34.6 46.2-81.3 25.5-102.1l-51-51c-7-6.9-16.9-10.2-28.3-10.2z" fill="#FF7878" p-id="3356"></path><path d="M839.1 929.1H189.6c-49.7 0-90.2-40.5-90.2-90.2V189.4c0-49.7 40.5-90.2 90.2-90.2h432.8c10 0 18 8.1 18 18s-8.1 18-18 18H189.6c-29.8 0-54.1 24.3-54.1 54.1v649.4c0 29.8 24.3 54.1 54.1 54.1H839c29.8 0 54.1-24.3 54.1-54.1V443.4c0-10 8.1-18 18-18s18 8.1 18 18v395.5c0.2 49.7-40.3 90.2-90 90.2z" fill="#FF7878" p-id="3357"></path><path d="M397.1 649.4c-2.3 0-4.6-0.9-6.4-2.6-3.5-3.5-3.5-9.2 0-12.8l18-18c3.5-3.5 9.2-3.5 12.8 0 3.5 3.5 3.5 9.2 0 12.8l-18 18c-1.8 1.8-4.1 2.6-6.4 2.6zM485.6 559.8c-2.2 0-4.4-0.8-6.2-2.4-3.6-3.4-3.8-9.1-0.4-12.8l254.3-271.2c3.4-3.7 9.1-3.8 12.8-0.4 3.6 3.4 3.8 9.1 0.4 12.8L492.2 557c-1.8 1.9-4.2 2.8-6.6 2.8z" fill="#FF7878" p-id="3358"></path></svg>