<?xml version="1.0" standalone="no"?><!DOCTYPE svg PUBLIC "-//W3C//DTD SVG 1.1//EN" "http://www.w3.org/Graphics/SVG/1.1/DTD/svg11.dtd"><svg t="1525577705894" class="icon" style="" viewBox="0 0 1024 1024" version="1.1" xmlns="http://www.w3.org/2000/svg" p-id="24798" xmlns:xlink="http://www.w3.org/1999/xlink" width="200" height="200"><defs><style type="text/css"></style></defs><path d="M803.3 497.9c6.8 7.5 6.1 19.1-1.4 25.8-7.5 6.7-19 6.1-25.8-1.4-50.7-56.2-98.9-97.3-146.1-122.6 29 28.8 47 68.7 47 112.8 0 87.7-71.1 158.8-158.7 158.8-87.7 0-158.7-71.1-158.7-158.8 0-5.1 0.2-10.1 0.7-15 0.3-2.8 2.3-5 5.1-5.4 2.8-0.5 5.4 1 6.6 3.6 11.3 25.9 37.2 43.9 67.2 43.9 40.5 0 73.4-32.9 73.4-73.4 0-40.5-32.9-73.4-73.4-73.4-8.2 0-16 1.3-23.4 3.8-49.6 25-101.3 67.7-156.5 128.7-6.7 7.5-18.3 8-25.7 1.3-7.5-6.7-8-18.3-1.3-25.7 102.9-113.9 196.6-168.4 290-167.5 93.5 0.9 184.2 57.1 281 164.5z" fill="#2875A4" p-id="24799"></path><path d="M835.1 586.1c-108.3 113.5-211.2 172-315.3 173-102.4 1-203.8-53.5-310.3-166-14.7 9.9-29.9 11.7-43.3 7.9-17.5-5-30.2-19.2-35.4-36.4-5.9-19.3-2.8-43.7 15.1-66.1 15.6-19.5 33.3-39.3 50.3-57.4 113-120.3 222.3-178.7 332.8-175.2 120.1 3.9 239.2 81.2 363.1 232.4 6.4 7.8 5.3 19.3-2.5 25.7-7.8 6.4-19.3 5.3-25.7-2.5-117-142.6-227.2-215.6-336.1-219.1-99.4-3.2-199.8 51.5-305.3 164-16.1 17.1-33.4 36.4-48.2 54.8-9.5 11.8-11.4 23.8-8.6 32.8 1.5 5 5.1 10.3 10.4 11.8 4.5 1.3 10.4-0.3 17-6.1 6.4-5.6 13.1-7.3 19.6-6.7 7.8 0.7 13.7 4.8 17.7 9.1 101.3 108.8 195.7 161.5 289 160.6 87-0.9 174.4-48.8 268.2-140.5 13.9-13.4 67.4-17 47.5 3.9z" fill="#2875A4" p-id="24800"></path></svg>