<?xml version="1.0" standalone="no"?><!DOCTYPE svg PUBLIC "-//W3C//DTD SVG 1.1//EN" "http://www.w3.org/Graphics/SVG/1.1/DTD/svg11.dtd"><svg t="1525577400157" class="icon" style="" viewBox="0 0 1024 1024" version="1.1" xmlns="http://www.w3.org/2000/svg" p-id="16642" xmlns:xlink="http://www.w3.org/1999/xlink" width="200" height="200"><defs><style type="text/css"></style></defs><path d="M712.92 136.783l191.2 191.2L538.48 693.625l-191.2-191.2z" fill="#FFCE00" p-id="16643"></path><path d="M156.5 763.1c-11.9 0-23.4-4.7-31.8-13.2a44.95 44.95 0 0 1-13.1-33.9l8.9-196.2c0.5-11.2 5.2-21.8 13.1-29.8L543.2 80.4c17.6-17.6 46.1-17.6 63.6 0l187.3 187.3c17.6 17.6 17.6 46.1 0 63.6L384.6 741c-7.9 7.9-18.6 12.6-29.8 13.1L158.6 763c-0.7 0.1-1.4 0.1-2.1 0.1z m196.2-53.9zM209.6 541.4L203.7 671l129.6-5.9 365.4-365.4L575 175.9 209.6 541.4zM867.5 896.7h-711c-24.9 0-45-20.1-45-45s20.1-45 45-45h711c24.9 0 45 20.1 45 45s-20.2 45-45 45z" fill="#242F44" p-id="16644"></path></svg>