<?xml version="1.0" standalone="no"?><!DOCTYPE svg PUBLIC "-//W3C//DTD SVG 1.1//EN" "http://www.w3.org/Graphics/SVG/1.1/DTD/svg11.dtd"><svg t="1525578044434" class="icon" style="" viewBox="0 0 1024 1024" version="1.1" xmlns="http://www.w3.org/2000/svg" p-id="28103" xmlns:xlink="http://www.w3.org/1999/xlink" width="200" height="200"><defs><style type="text/css"></style></defs><path d="M379.606 38.665l573.412 135.709-191.936 810.961-573.418-135.716z" fill="#CCCCCC" p-id="28104"></path><path d="M381.484 41.992l569.381 134.755-190.586 805.261-569.388-134.762z" fill="#FFFFFF" p-id="28105"></path><path d="M507.539 162.92l276.432 65.4-3.371 14.181-276.417-65.43zM404.932 176.053l464.869 110.009-3.35 14.188-464.87-110.031zM399.059 200.844l464.877 110.023-3.359 14.188-464.87-110.03zM393.199 225.664l464.864 110.023-3.373 14.174-464.847-110.016zM387.319 250.47l464.87 110.008-3.349 14.189-464.878-110.024zM381.453 275.26l464.856 110.038-3.342 14.181L378.09 289.448zM375.58 300.073l464.877 110.024-3.355 14.173-464.878-110.009zM369.723 324.889L834.56 434.9l-3.354 14.174-464.837-110.012zM363.835 349.691L828.69 459.714l-3.327 14.182-464.885-110.024zM357.962 374.504l232.448 55.019-3.371 14.166-232.427-55.012z" fill="#CCCCCC" p-id="28106"></path><path d="M744.35 547.146c33.283 7.887 53.905 41.272 46.019 74.563-7.895 33.289-41.267 53.889-74.549 46.01-33.299-7.881-53.906-41.26-46.026-74.549 7.872-33.305 41.258-53.904 74.556-46.024z" fill="#58B7A5" p-id="28107"></path><path d="M684.979 649.939a62.69 62.69 0 0 1-15.097-27.75l60.19-14.75-45.093 42.5z" fill="#AEDBD6" p-id="28108"></path><path d="M669.882 622.189a61.857 61.857 0 0 1-0.089-29.019c4.566-19.287 17.671-34.303 34.359-42.012l25.92 56.278-60.19 14.753z" fill="#99D3CA" p-id="28109"></path><path d="M704.153 551.16c12.13-5.594 26.171-7.32 40.196-4.014l-14.276 60.293-25.92-56.279z" fill="#82CABD" p-id="28110"></path><path d="M744.35 547.146l-14.276 60.293 52.968-32.117c-8.309-13.701-21.879-24.191-38.692-28.176z" fill="#6CC3B3" p-id="28111"></path><path d="M308.794 582.223l276.614 65.451-1.674 7.068-276.593-65.467z" fill="#CCCCCC" p-id="28112"></path><path d="M343.863 434.076l49.182 11.635-35.068 148.139-49.183-11.627z" fill="#BF1A20" p-id="28113"></path><path d="M387.504 503.393l49.176 11.644-21.84 92.272-49.176-11.645z" fill="#CC1D1C" p-id="28114"></path><path d="M436.967 548.105l49.176 11.635-14.44 61.018-49.168-11.621z" fill="#D72822" p-id="28115"></path><path d="M500.597 532.951l49.175 11.627-21.211 89.645-49.184-11.643z" fill="#E43532" p-id="28116"></path><path d="M551.409 571.943l49.177 11.637-15.178 64.094-49.181-11.637z" fill="#E94440" p-id="28117"></path><path d="M656.933 664.607l24.812 5.873-1.668 7.075-24.818-5.879zM693.248 673.201l73.731 17.444-1.675 7.076-73.737-17.457zM301.836 611.689L515.16 662.18l-3.334 14.174-213.354-50.491zM295.956 636.496l213.332 50.496-3.342 14.18-213.348-50.494zM290.083 661.301l213.355 50.496-3.358 14.168-213.34-50.483zM284.209 686.113l213.341 50.489-3.343 14.181-213.34-50.51zM278.336 710.912l213.356 50.504-3.358 14.174-213.347-50.496zM272.471 735.732l213.34 50.489-3.358 14.174-213.347-50.497zM266.598 760.539l213.348 50.479-3.357 14.181-213.348-50.496zM260.732 785.336l106.674 25.24-3.357 14.182-106.681-25.248zM553.344 671.225l213.354 50.488-3.348 14.166-213.357-50.481zM547.478 696.037l213.346 50.475-3.348 14.174-213.357-50.483zM541.605 720.828l213.346 50.496-3.363 14.166-213.341-50.474zM535.732 745.643l213.332 50.486-3.327 14.182-213.355-50.497zM529.872 770.439l213.342 50.504-3.364 14.166-213.333-50.49zM523.991 795.244l213.349 50.512-3.342 14.166-213.362-50.498zM518.135 820.051l213.325 50.494-3.344 14.182-213.345-50.497zM512.254 844.855l150.176 35.549-3.371 14.18-150.154-35.541z" fill="#CCCCCC" p-id="28118"></path><path d="M122.716 56.35h506.939c27.271 0 49.581 22.312 49.581 49.582V263.47c0 10.211-1.638 14.933-9.769 18.032l-18.136 6.936c-9.002 3.446-13.62 12.048-13.62 24.378v144.693c0 12.321 4.618 20.932 13.62 24.37l18.136 6.928c8.131 3.121 9.769 7.844 9.769 18.04V863.974c0 27.277-22.312 49.589-49.581 49.589H122.716c-27.271 0-49.582-22.312-49.582-49.589V105.931c0.001-27.27 22.312-49.581 49.582-49.581z" fill="#38AAAA" p-id="28119"></path><path d="M156.833 274.19l0.339-85.004 62.508 57.609 253.573 581.563c4.102 9.43-0.236 20.496-9.682 24.614l-28.567 12.461c-9.414 4.109-20.497-0.252-24.6-9.674L156.833 274.19z" fill="#C92C29" p-id="28120"></path><path d="M156.833 274.19l0.339-85.004 32.316 74.151 259.8 595.862-14.283 6.233c-9.414 4.109-20.497-0.252-24.6-9.674L156.833 274.19z" fill="#AE2A28" p-id="28121"></path><path d="M156.833 274.19l0.339-85.004 62.508 57.609 242.55 556.314c-20.467 13.414-41.377 22.319-62.832 27.409L156.833 274.19z" fill="#FFFFFF" p-id="28122"></path><path d="M156.833 274.19l0.339-85.004 32.316 74.151 242.536 556.226a189.724 189.724 0 0 1-32.626 10.957L156.833 274.19z" fill="#E6E6E5" p-id="28123"></path><path d="M156.833 274.19l0.339-85.004 62.508 57.609 233.813 536.268c-20.48 13.729-41.361 22.614-62.832 27.409L156.833 274.19z" fill="#F3A18A" p-id="28124"></path><path d="M156.833 274.19l0.339-85.004 32.316 74.151 233.874 536.38c-10.771 4.736-21.663 8.291-32.7 10.756L156.833 274.19z" fill="#E3785A" p-id="28125"></path><path d="M156.833 274.19l0.339-85.004 62.508 57.595c-9.179 6.212-19.286 11.797-30.191 16.556-10.89 4.752-21.869 8.352-32.656 10.853z" fill="#FFFFFF" p-id="28126"></path><path d="M156.833 274.19l0.339-85.004 32.316 74.151c-10.889 4.752-21.868 8.359-32.655 10.853z" fill="#E6E6E5" p-id="28127"></path><path d="M157.055 217.268l0.117-28.082 20.659 19.036a63.237 63.237 0 0 1-9.976 5.467 62.796 62.796 0 0 1-10.8 3.579z" fill="#C92C29" p-id="28128"></path></svg>