<?xml version="1.0" standalone="no"?><!DOCTYPE svg PUBLIC "-//W3C//DTD SVG 1.1//EN" "http://www.w3.org/Graphics/SVG/1.1/DTD/svg11.dtd"><svg t="1525578958605" class="icon" style="" viewBox="0 0 1820 1024" version="1.1" xmlns="http://www.w3.org/2000/svg" p-id="41188" xmlns:xlink="http://www.w3.org/1999/xlink" width="355.46875" height="200"><defs><style type="text/css"></style></defs><path d="M1064.96 318.293333c0-21.428148-17.351111-38.779259-38.779259-38.779259H715.567407c-21.428148 0-38.779259 17.351111-38.779259 38.779259 0 21.428148 17.351111 38.779259 38.779259 38.77926h310.518519c21.522963 0.094815 38.874074-17.351111 38.874074-38.77926z" fill="#FFD561" p-id="41189"></path><path d="M637.914074 822.992593c-21.428148 0-38.779259-17.351111-38.779259-38.77926V240.64c0-21.428148 17.351111-38.779259 38.779259-38.779259h504.699259c21.428148 0 38.779259 17.351111 38.77926 38.779259v323.982222l77.653333 43.994074v-445.629629c0-21.428148-17.351111-38.779259-38.779259-38.77926H560.355556c-21.428148 0-38.779259 17.351111-38.77926 38.77926v698.785185c0 21.428148 17.351111 38.779259 38.77926 38.779259h659.911111c5.688889 0 11.093333-1.422222 15.928889-3.602963L1105.540741 822.992593H637.914074z" fill="#5FFFBA" p-id="41190"></path><path d="M1279.715556 719.928889l-146.014815-80.118519c5.30963-15.739259 8.912593-32.237037 8.912592-49.777777 0-85.712593-69.499259-155.306667-155.306666-155.306667-85.807407 0-155.306667 69.499259-155.306667 155.306667 0 85.807407 69.499259 155.306667 155.306667 155.306666 42.571852 0 81.066667-17.161481 109.131852-44.942222l146.394074 80.308148c17.635556 9.671111 40.201481 3.982222 50.441481-12.8 10.145185-16.782222 4.171852-38.305185-13.558518-47.976296z m-292.408889-52.242963c-42.856296 0-77.653333-34.797037-77.653334-77.653333s34.797037-77.653333 77.653334-77.653334 77.653333 34.797037 77.653333 77.653334-34.797037 77.653333-77.653333 77.653333zM715.567407 434.725926c-21.428148 0-38.779259 17.351111-38.779259 38.779259 0 21.428148 17.351111 38.779259 38.779259 38.779259h38.77926c21.428148 0 38.779259-17.351111 38.779259-38.779259 0-21.428148-17.351111-38.779259-38.779259-38.779259h-38.77926z" fill="#FFA28D" p-id="41191"></path></svg>